<mxfile host="app.diagrams.net" modified="2021-04-07T18:26:59.361Z" agent="5.0 (Windows)" etag="nU6svUKrnFy0Vrp_bkgN" version="14.5.8" type="github">
  <diagram id="gUxx14Gyuj8bI8SUsE2u" name="Page-1">
    <mxGraphModel dx="1422" dy="803" grid="1" gridSize="10" guides="1" tooltips="1" connect="1" arrows="1" fold="1" page="1" pageScale="1" pageWidth="827" pageHeight="1169" math="0" shadow="0">
      <root>
        <mxCell id="0" />
        <mxCell id="1" parent="0" />
        <mxCell id="0dmqTtuOafWal56lq9jM-45" style="rounded=0;orthogonalLoop=1;jettySize=auto;html=1;exitX=0.5;exitY=1;exitDx=0;exitDy=0;entryX=0.5;entryY=0;entryDx=0;entryDy=0;" edge="1" parent="1" source="0dmqTtuOafWal56lq9jM-44" target="0dmqTtuOafWal56lq9jM-28">
          <mxGeometry relative="1" as="geometry" />
        </mxCell>
        <mxCell id="0dmqTtuOafWal56lq9jM-54" value="routes with arguments" style="edgeLabel;html=1;align=center;verticalAlign=middle;resizable=0;points=[];" vertex="1" connectable="0" parent="0dmqTtuOafWal56lq9jM-45">
          <mxGeometry x="-0.2" y="3" relative="1" as="geometry">
            <mxPoint x="12.01" y="-61.39" as="offset" />
          </mxGeometry>
        </mxCell>
        <mxCell id="0dmqTtuOafWal56lq9jM-4" value="Domain: UI" style="shape=umlFrame;whiteSpace=wrap;html=1;width=80;height=30;align=left;" vertex="1" parent="1">
          <mxGeometry x="30" y="560" width="810" height="210" as="geometry" />
        </mxCell>
        <mxCell id="0dmqTtuOafWal56lq9jM-11" value="Styleguide story" style="html=1;align=center;shadow=1;glass=0;sketch=0;dashed=1;" vertex="1" parent="1">
          <mxGeometry x="300" y="570" width="120" height="50" as="geometry" />
        </mxCell>
        <mxCell id="0dmqTtuOafWal56lq9jM-1" value="Domain: App navigation" style="shape=umlFrame;whiteSpace=wrap;html=1;width=150;height=30;align=left;" vertex="1" parent="1">
          <mxGeometry x="30" y="60" width="250" height="140" as="geometry" />
        </mxCell>
        <mxCell id="0dmqTtuOafWal56lq9jM-2" value="Domain: Feature" style="shape=umlFrame;whiteSpace=wrap;html=1;width=110;height=30;align=left;" vertex="1" parent="1">
          <mxGeometry x="30" y="310" width="470" height="220" as="geometry" />
        </mxCell>
        <mxCell id="0dmqTtuOafWal56lq9jM-3" value="Domain: Backend Binding" style="shape=umlFrame;whiteSpace=wrap;html=1;width=150;height=30;align=left;" vertex="1" parent="1">
          <mxGeometry x="550" y="330" width="290" height="200" as="geometry" />
        </mxCell>
        <mxCell id="0dmqTtuOafWal56lq9jM-10" style="edgeStyle=orthogonalEdgeStyle;rounded=0;orthogonalLoop=1;jettySize=auto;html=1;entryX=0;entryY=0.5;entryDx=0;entryDy=0;" edge="1" parent="1" source="0dmqTtuOafWal56lq9jM-5" target="0dmqTtuOafWal56lq9jM-7">
          <mxGeometry relative="1" as="geometry" />
        </mxCell>
        <mxCell id="0dmqTtuOafWal56lq9jM-5" value="Controller" style="html=1;align=center;" vertex="1" parent="1">
          <mxGeometry x="40" y="605" width="110" height="50" as="geometry" />
        </mxCell>
        <mxCell id="0dmqTtuOafWal56lq9jM-8" style="edgeStyle=orthogonalEdgeStyle;rounded=0;orthogonalLoop=1;jettySize=auto;html=1;" edge="1" parent="1" source="0dmqTtuOafWal56lq9jM-6" target="0dmqTtuOafWal56lq9jM-5">
          <mxGeometry relative="1" as="geometry" />
        </mxCell>
        <mxCell id="0dmqTtuOafWal56lq9jM-9" style="edgeStyle=orthogonalEdgeStyle;rounded=0;orthogonalLoop=1;jettySize=auto;html=1;entryX=1;entryY=0.5;entryDx=0;entryDy=0;" edge="1" parent="1" source="0dmqTtuOafWal56lq9jM-6" target="0dmqTtuOafWal56lq9jM-7">
          <mxGeometry relative="1" as="geometry" />
        </mxCell>
        <mxCell id="0dmqTtuOafWal56lq9jM-18" style="rounded=0;orthogonalLoop=1;jettySize=auto;html=1;exitX=1;exitY=0.5;exitDx=0;exitDy=0;entryX=0;entryY=0.5;entryDx=0;entryDy=0;" edge="1" parent="1" source="0dmqTtuOafWal56lq9jM-6" target="0dmqTtuOafWal56lq9jM-13">
          <mxGeometry relative="1" as="geometry" />
        </mxCell>
        <mxCell id="0dmqTtuOafWal56lq9jM-6" value="Pure UI Component" style="html=1;align=center;" vertex="1" parent="1">
          <mxGeometry x="200" y="605" width="120" height="50" as="geometry" />
        </mxCell>
        <mxCell id="0dmqTtuOafWal56lq9jM-7" value="Pure UI state" style="html=1;align=center;" vertex="1" parent="1">
          <mxGeometry x="120" y="680" width="110" height="50" as="geometry" />
        </mxCell>
        <mxCell id="0dmqTtuOafWal56lq9jM-19" style="edgeStyle=orthogonalEdgeStyle;rounded=0;orthogonalLoop=1;jettySize=auto;html=1;exitX=1;exitY=0.5;exitDx=0;exitDy=0;entryX=0;entryY=0.5;entryDx=0;entryDy=0;" edge="1" parent="1" source="0dmqTtuOafWal56lq9jM-13" target="0dmqTtuOafWal56lq9jM-15">
          <mxGeometry relative="1" as="geometry" />
        </mxCell>
        <mxCell id="0dmqTtuOafWal56lq9jM-20" style="edgeStyle=orthogonalEdgeStyle;rounded=0;orthogonalLoop=1;jettySize=auto;html=1;exitX=0.75;exitY=0;exitDx=0;exitDy=0;entryX=0;entryY=0.5;entryDx=0;entryDy=0;" edge="1" parent="1" source="0dmqTtuOafWal56lq9jM-13" target="0dmqTtuOafWal56lq9jM-14">
          <mxGeometry relative="1" as="geometry">
            <Array as="points">
              <mxPoint x="543" y="595" />
            </Array>
          </mxGeometry>
        </mxCell>
        <mxCell id="0dmqTtuOafWal56lq9jM-21" style="edgeStyle=orthogonalEdgeStyle;rounded=0;orthogonalLoop=1;jettySize=auto;html=1;exitX=0.75;exitY=1;exitDx=0;exitDy=0;entryX=0;entryY=0.75;entryDx=0;entryDy=0;" edge="1" parent="1" source="0dmqTtuOafWal56lq9jM-13" target="0dmqTtuOafWal56lq9jM-16">
          <mxGeometry relative="1" as="geometry" />
        </mxCell>
        <mxCell id="0dmqTtuOafWal56lq9jM-13" value="Theme" style="html=1;align=center;" vertex="1" parent="1">
          <mxGeometry x="460" y="632.5" width="110" height="50" as="geometry" />
        </mxCell>
        <mxCell id="0dmqTtuOafWal56lq9jM-14" value="Typography" style="html=1;align=center;" vertex="1" parent="1">
          <mxGeometry x="590" y="570" width="110" height="50" as="geometry" />
        </mxCell>
        <mxCell id="0dmqTtuOafWal56lq9jM-15" value="Shadows" style="html=1;align=center;" vertex="1" parent="1">
          <mxGeometry x="590" y="632.5" width="110" height="50" as="geometry" />
        </mxCell>
        <mxCell id="0dmqTtuOafWal56lq9jM-22" style="edgeStyle=orthogonalEdgeStyle;rounded=0;orthogonalLoop=1;jettySize=auto;html=1;exitX=1;exitY=0.5;exitDx=0;exitDy=0;entryX=0;entryY=0.5;entryDx=0;entryDy=0;" edge="1" parent="1" source="0dmqTtuOafWal56lq9jM-16" target="0dmqTtuOafWal56lq9jM-17">
          <mxGeometry relative="1" as="geometry" />
        </mxCell>
        <mxCell id="0dmqTtuOafWal56lq9jM-16" value="&lt;div&gt;Color Scheme&lt;/div&gt;" style="html=1;align=center;" vertex="1" parent="1">
          <mxGeometry x="590" y="690" width="110" height="50" as="geometry" />
        </mxCell>
        <mxCell id="0dmqTtuOafWal56lq9jM-17" value="&lt;div&gt;Color Palette&lt;br&gt;&lt;/div&gt;" style="html=1;align=center;" vertex="1" parent="1">
          <mxGeometry x="717" y="690" width="110" height="50" as="geometry" />
        </mxCell>
        <mxCell id="0dmqTtuOafWal56lq9jM-27" style="edgeStyle=orthogonalEdgeStyle;rounded=0;orthogonalLoop=1;jettySize=auto;html=1;exitX=0.75;exitY=0;exitDx=0;exitDy=0;entryX=0;entryY=0.5;entryDx=0;entryDy=0;" edge="1" parent="1" source="0dmqTtuOafWal56lq9jM-23" target="0dmqTtuOafWal56lq9jM-24">
          <mxGeometry relative="1" as="geometry" />
        </mxCell>
        <mxCell id="0dmqTtuOafWal56lq9jM-23" value="API Client" style="html=1;align=center;" vertex="1" parent="1">
          <mxGeometry x="570" y="405" width="110" height="50" as="geometry" />
        </mxCell>
        <mxCell id="0dmqTtuOafWal56lq9jM-24" value="HTTP Client lib" style="html=1;align=center;dashed=1;shadow=1;" vertex="1" parent="1">
          <mxGeometry x="717" y="355" width="110" height="50" as="geometry" />
        </mxCell>
        <mxCell id="0dmqTtuOafWal56lq9jM-25" value="API Datatypes" style="html=1;align=center;" vertex="1" parent="1">
          <mxGeometry x="660" y="440" width="110" height="50" as="geometry" />
        </mxCell>
        <mxCell id="0dmqTtuOafWal56lq9jM-33" style="edgeStyle=orthogonalEdgeStyle;rounded=0;orthogonalLoop=1;jettySize=auto;html=1;exitX=1;exitY=0.5;exitDx=0;exitDy=0;entryX=0;entryY=0.5;entryDx=0;entryDy=0;" edge="1" parent="1" source="0dmqTtuOafWal56lq9jM-28" target="0dmqTtuOafWal56lq9jM-30">
          <mxGeometry relative="1" as="geometry" />
        </mxCell>
        <mxCell id="0dmqTtuOafWal56lq9jM-42" style="rounded=0;orthogonalLoop=1;jettySize=auto;html=1;exitX=0.5;exitY=1;exitDx=0;exitDy=0;" edge="1" parent="1" source="0dmqTtuOafWal56lq9jM-28" target="0dmqTtuOafWal56lq9jM-29">
          <mxGeometry relative="1" as="geometry" />
        </mxCell>
        <mxCell id="0dmqTtuOafWal56lq9jM-28" value="Page" style="html=1;align=center;" vertex="1" parent="1">
          <mxGeometry x="50" y="360" width="110" height="50" as="geometry" />
        </mxCell>
        <mxCell id="0dmqTtuOafWal56lq9jM-32" style="edgeStyle=orthogonalEdgeStyle;rounded=0;orthogonalLoop=1;jettySize=auto;html=1;exitX=1;exitY=0.5;exitDx=0;exitDy=0;" edge="1" parent="1" source="0dmqTtuOafWal56lq9jM-29" target="0dmqTtuOafWal56lq9jM-31">
          <mxGeometry relative="1" as="geometry" />
        </mxCell>
        <mxCell id="0dmqTtuOafWal56lq9jM-50" style="rounded=0;orthogonalLoop=1;jettySize=auto;html=1;exitX=0.5;exitY=1;exitDx=0;exitDy=0;entryX=0.75;entryY=0;entryDx=0;entryDy=0;" edge="1" parent="1" source="0dmqTtuOafWal56lq9jM-29" target="0dmqTtuOafWal56lq9jM-5">
          <mxGeometry relative="1" as="geometry" />
        </mxCell>
        <mxCell id="0dmqTtuOafWal56lq9jM-52" style="rounded=0;orthogonalLoop=1;jettySize=auto;html=1;exitX=0.75;exitY=1;exitDx=0;exitDy=0;" edge="1" parent="1" source="0dmqTtuOafWal56lq9jM-29" target="0dmqTtuOafWal56lq9jM-6">
          <mxGeometry relative="1" as="geometry" />
        </mxCell>
        <mxCell id="0dmqTtuOafWal56lq9jM-29" value="Integration UI Component" style="html=1;align=center;" vertex="1" parent="1">
          <mxGeometry x="50" y="450" width="150" height="50" as="geometry" />
        </mxCell>
        <mxCell id="0dmqTtuOafWal56lq9jM-35" style="edgeStyle=orthogonalEdgeStyle;rounded=0;orthogonalLoop=1;jettySize=auto;html=1;exitX=0.5;exitY=1;exitDx=0;exitDy=0;entryX=0.5;entryY=0;entryDx=0;entryDy=0;" edge="1" parent="1" source="0dmqTtuOafWal56lq9jM-30" target="0dmqTtuOafWal56lq9jM-31">
          <mxGeometry relative="1" as="geometry" />
        </mxCell>
        <mxCell id="0dmqTtuOafWal56lq9jM-30" value="Page State" style="html=1;align=center;" vertex="1" parent="1">
          <mxGeometry x="340" y="360" width="110" height="50" as="geometry" />
        </mxCell>
        <mxCell id="0dmqTtuOafWal56lq9jM-36" style="edgeStyle=orthogonalEdgeStyle;rounded=0;orthogonalLoop=1;jettySize=auto;html=1;exitX=1;exitY=0.5;exitDx=0;exitDy=0;" edge="1" parent="1" source="0dmqTtuOafWal56lq9jM-31" target="0dmqTtuOafWal56lq9jM-23">
          <mxGeometry relative="1" as="geometry" />
        </mxCell>
        <mxCell id="0dmqTtuOafWal56lq9jM-31" value="Feature State" style="html=1;align=center;" vertex="1" parent="1">
          <mxGeometry x="340" y="450" width="110" height="50" as="geometry" />
        </mxCell>
        <mxCell id="0dmqTtuOafWal56lq9jM-41" style="rounded=0;orthogonalLoop=1;jettySize=auto;html=1;exitX=0.5;exitY=1;exitDx=0;exitDy=0;entryX=0.5;entryY=0;entryDx=0;entryDy=0;" edge="1" parent="1" source="0dmqTtuOafWal56lq9jM-37" target="0dmqTtuOafWal56lq9jM-30">
          <mxGeometry relative="1" as="geometry" />
        </mxCell>
        <mxCell id="0dmqTtuOafWal56lq9jM-37" value="App State" style="html=1;align=center;" vertex="1" parent="1">
          <mxGeometry x="360" y="230" width="110" height="50" as="geometry" />
        </mxCell>
        <mxCell id="0dmqTtuOafWal56lq9jM-40" style="edgeStyle=orthogonalEdgeStyle;rounded=0;orthogonalLoop=1;jettySize=auto;html=1;exitX=1;exitY=0.5;exitDx=0;exitDy=0;" edge="1" parent="1" source="0dmqTtuOafWal56lq9jM-38" target="0dmqTtuOafWal56lq9jM-37">
          <mxGeometry relative="1" as="geometry" />
        </mxCell>
        <mxCell id="0dmqTtuOafWal56lq9jM-38" value="&lt;div&gt;App&lt;/div&gt;" style="html=1;align=center;" vertex="1" parent="1">
          <mxGeometry x="210" y="230" width="110" height="50" as="geometry" />
        </mxCell>
        <mxCell id="0dmqTtuOafWal56lq9jM-43" value="Domain: URL to internal routing" style="shape=umlFrame;whiteSpace=wrap;html=1;width=190;height=30;align=left;" vertex="1" parent="1">
          <mxGeometry x="310" y="60" width="290" height="140" as="geometry" />
        </mxCell>
        <mxCell id="0dmqTtuOafWal56lq9jM-44" value="Router" style="html=1;align=center;" vertex="1" parent="1">
          <mxGeometry x="100" y="105" width="110" height="50" as="geometry" />
        </mxCell>
        <mxCell id="0dmqTtuOafWal56lq9jM-48" style="edgeStyle=orthogonalEdgeStyle;rounded=0;orthogonalLoop=1;jettySize=auto;html=1;exitX=0;exitY=0.5;exitDx=0;exitDy=0;" edge="1" parent="1" source="0dmqTtuOafWal56lq9jM-46" target="0dmqTtuOafWal56lq9jM-44">
          <mxGeometry relative="1" as="geometry" />
        </mxCell>
        <mxCell id="0dmqTtuOafWal56lq9jM-53" value="Push route&lt;br&gt;with arguments" style="edgeLabel;html=1;align=center;verticalAlign=middle;resizable=0;points=[];labelBackgroundColor=none;" vertex="1" connectable="0" parent="0dmqTtuOafWal56lq9jM-48">
          <mxGeometry x="-0.6078" y="-2" relative="1" as="geometry">
            <mxPoint x="-14" y="2" as="offset" />
          </mxGeometry>
        </mxCell>
        <mxCell id="0dmqTtuOafWal56lq9jM-46" value="Deep Link Handler" style="html=1;align=center;" vertex="1" parent="1">
          <mxGeometry x="414" y="105" width="110" height="50" as="geometry" />
        </mxCell>
        <mxCell id="0dmqTtuOafWal56lq9jM-49" style="edgeStyle=orthogonalEdgeStyle;rounded=0;orthogonalLoop=1;jettySize=auto;html=1;exitX=0;exitY=0.5;exitDx=0;exitDy=0;entryX=1;entryY=0.5;entryDx=0;entryDy=0;" edge="1" parent="1" source="0dmqTtuOafWal56lq9jM-47" target="0dmqTtuOafWal56lq9jM-46">
          <mxGeometry relative="1" as="geometry" />
        </mxCell>
        <mxCell id="0dmqTtuOafWal56lq9jM-47" value="Deep Link Handler" style="html=1;align=center;dashed=1;shadow=1;" vertex="1" parent="1">
          <mxGeometry x="660" y="105" width="110" height="50" as="geometry" />
        </mxCell>
        <mxCell id="0dmqTtuOafWal56lq9jM-39" style="rounded=0;orthogonalLoop=1;jettySize=auto;html=1;exitX=0.5;exitY=1;exitDx=0;exitDy=0;entryX=0.75;entryY=0;entryDx=0;entryDy=0;" edge="1" parent="1" source="0dmqTtuOafWal56lq9jM-38" target="0dmqTtuOafWal56lq9jM-28">
          <mxGeometry relative="1" as="geometry" />
        </mxCell>
      </root>
    </mxGraphModel>
  </diagram>
</mxfile>
